<svg width="25" height="25" viewBox="0 0 25 25" fill="none" xmlns="http://www.w3.org/2000/svg">
<rect width="25" height="25" fill="#1E1E1E"/>
<g clip-path="url(#clip0_0_1)">
<rect width="375" height="812" transform="translate(-20 -355)" fill="white"/>
<path d="M11.3374 0.636363H9.49006V9.71591H9.37536L3.08487 0.636363H1.35831V13H3.22372V3.93253H3.33842L9.62287 13H11.3374V0.636363ZM17.9101 13.1871C19.9324 13.1871 21.3632 12.1911 21.7737 10.6818L20.0653 10.3739C19.7393 11.2493 18.9545 11.696 17.9282 11.696C16.3827 11.696 15.3444 10.6939 15.2961 8.90696H21.8884V8.26705C21.8884 4.91655 19.8841 3.60653 17.7833 3.60653C15.1995 3.60653 13.4971 5.57457 13.4971 8.42401C13.4971 11.3036 15.1753 13.1871 17.9101 13.1871ZM15.3021 7.55469C15.3746 6.23864 16.3284 5.09766 17.7954 5.09766C19.1959 5.09766 20.1135 6.13601 20.1196 7.55469H15.3021ZM25.8849 13H27.7201L29.6036 6.30504H29.7425L31.626 13H33.4672L36.1899 3.72727H34.3245L32.5194 10.5067H32.4289L30.6178 3.72727H28.7524L26.9292 10.5369H26.8387L25.0216 3.72727H23.1562L25.8849 13ZM43.5912 13L44.7261 9.72798H49.5557L50.6846 13H52.6647L48.2155 0.636363H46.0603L41.6111 13H43.5912ZM45.2694 8.15838L47.0926 2.8821H47.1892L49.0123 8.15838H45.2694ZM54.3052 13H56.1103V7.33736C56.1103 6.12393 57.046 5.24858 58.3258 5.24858C58.7001 5.24858 59.1227 5.31499 59.2676 5.35724V3.63068C59.0865 3.60653 58.7303 3.58842 58.5009 3.58842C57.4142 3.58842 56.4846 4.20419 56.1465 5.20028H56.0499V3.72727H54.3052V13ZM60.8296 13H62.6347V7.33736C62.6347 6.12393 63.5704 5.24858 64.8502 5.24858C65.2245 5.24858 65.6471 5.31499 65.792 5.35724V3.63068C65.6109 3.60653 65.2547 3.58842 65.0253 3.58842C63.9387 3.58842 63.009 4.20419 62.6709 5.20028H62.5743V3.72727H60.8296V13ZM69.9695 13.2053C71.5029 13.2053 72.3662 12.4265 72.7103 11.7322H72.7828V13H74.5455V6.84233C74.5455 4.14382 72.4205 3.60653 70.9475 3.60653C69.2693 3.60653 67.7238 4.28267 67.1201 5.97301L68.8165 6.35938C69.0821 5.70135 69.7583 5.06747 70.9717 5.06747C72.1368 5.06747 72.7345 5.6772 72.7345 6.72763V6.76989C72.7345 7.42791 72.0583 7.41584 70.3921 7.60902C68.6354 7.81428 66.8364 8.27308 66.8364 10.38C66.8364 12.2031 68.2068 13.2053 69.9695 13.2053ZM70.3619 11.7564C69.3417 11.7564 68.6052 11.2976 68.6052 10.4041C68.6052 9.43821 69.4624 9.0941 70.5068 8.95526C71.0924 8.87678 72.4809 8.71982 72.7405 8.46023V9.65554C72.7405 10.7543 71.8651 11.7564 70.3619 11.7564ZM76.9498 13H78.7548V3.72727H76.9498V13ZM77.8613 2.29652C78.4831 2.29652 79.0023 1.81357 79.0023 1.22195C79.0023 0.630326 78.4831 0.141335 77.8613 0.141335C77.2335 0.141335 76.7203 0.630326 76.7203 1.22195C76.7203 1.81357 77.2335 2.29652 77.8613 2.29652ZM89.1157 3.72727H87.1778L84.8355 10.8629H84.7389L82.3905 3.72727H80.4527L83.8213 13H85.7531L89.1157 3.72727ZM93.2283 13.2053C94.7617 13.2053 95.625 12.4265 95.9691 11.7322H96.0415V13H97.8043V6.84233C97.8043 4.14382 95.6793 3.60653 94.2063 3.60653C92.5281 3.60653 90.9826 4.28267 90.3789 5.97301L92.0753 6.35938C92.3409 5.70135 93.017 5.06747 94.2305 5.06747C95.3956 5.06747 95.9933 5.6772 95.9933 6.72763V6.76989C95.9933 7.42791 95.3171 7.41584 93.6509 7.60902C91.8942 7.81428 90.0952 8.27308 90.0952 10.38C90.0952 12.2031 91.4656 13.2053 93.2283 13.2053ZM93.6207 11.7564C92.6005 11.7564 91.864 11.2976 91.864 10.4041C91.864 9.43821 92.7212 9.0941 93.7656 8.95526C94.3512 8.87678 95.7397 8.71982 95.9993 8.46023V9.65554C95.9993 10.7543 95.1239 11.7564 93.6207 11.7564ZM102.014 0.636363H100.209V13H102.014V0.636363Z" fill="#1D1E20"/>
<g filter="url(#filter0_b_0_1)">
<rect x="-20" y="-355" width="375" height="812" fill="#1D1E20" fill-opacity="0.2"/>
</g>
<rect x="-20" y="-355" width="300" height="812" fill="white"/>
<path fill-rule="evenodd" clip-rule="evenodd" d="M7.79771 22.3958H16.4934C19.6874 22.3958 22.1379 21.2421 21.4419 16.5988L20.6314 10.3058C20.2023 7.98887 18.7245 7.10214 17.4278 7.10214H6.82517C5.50938 7.10214 4.11731 8.05562 3.6215 10.3058L2.81105 16.5988C2.21991 20.7177 4.60358 22.3958 7.79771 22.3958Z" stroke="white" stroke-width="1.5" stroke-linecap="round" stroke-linejoin="round"/>
<path d="M7.65527 6.87332C7.65527 4.38783 9.67016 2.37293 12.1556 2.37293C13.3525 2.36786 14.5021 2.83977 15.3502 3.68431C16.1983 4.52884 16.6751 5.67644 16.6751 6.87332" stroke="white" stroke-width="1.5" stroke-linecap="round" stroke-linejoin="round"/>
<path d="M9.06641 11.5644H9.11408" stroke="white" stroke-width="1.5" stroke-linecap="round" stroke-linejoin="round"/>
<path d="M15.1396 11.5644H15.1874" stroke="white" stroke-width="1.5" stroke-linecap="round" stroke-linejoin="round"/>
</g>
<defs>
<filter id="filter0_b_0_1" x="-35" y="-370" width="405" height="842" filterUnits="userSpaceOnUse" color-interpolation-filters="sRGB">
<feFlood flood-opacity="0" result="BackgroundImageFix"/>
<feGaussianBlur in="BackgroundImageFix" stdDeviation="7.5"/>
<feComposite in2="SourceAlpha" operator="in" result="effect1_backgroundBlur_0_1"/>
<feBlend mode="normal" in="SourceGraphic" in2="effect1_backgroundBlur_0_1" result="shape"/>
</filter>
<clipPath id="clip0_0_1">
<rect width="375" height="812" fill="white" transform="translate(-20 -355)"/>
</clipPath>
</defs>
</svg>
