<svg width="67" height="80" viewBox="0 0 67 80" fill="none" xmlns="http://www.w3.org/2000/svg">
<path d="M29.1937 34.7093C29.1937 32.3233 31.1279 30.389 33.514 30.389C34.663 30.3841 35.7666 30.8371 36.5808 31.6479C37.395 32.4586 37.8527 33.5603 37.8527 34.7093M30.5483 39.2127H30.5941M36.379 39.2127H36.4248M29.331 49.6109H37.6788C40.7451 49.6109 43.0975 48.5033 42.4294 44.0457L41.6513 38.0045C41.2394 35.7802 39.8207 34.929 38.5758 34.929H28.3973C27.1342 34.929 25.7978 35.8443 25.3218 38.0045L24.5438 44.0457C23.9763 47.9999 26.2646 49.6109 29.331 49.6109Z" stroke="#8F959E" stroke-width="1.5" stroke-linecap="round" stroke-linejoin="round"/>
</svg>
