<svg width="23" height="22" viewBox="0 0 23 22" fill="none" xmlns="http://www.w3.org/2000/svg">
<g id="Twitter" clip-path="url(#clip0_100_54)">
<g id="Twitter_2">
<rect id="Rectangle" x="0.5" width="22" height="22" rx="11" fill="#1DA1F2"/>
<path id="Path" d="M16.8911 8.62241C16.8911 8.74272 16.8911 8.86303 16.8911 8.96616C16.8911 12.524 14.1754 16.6318 9.22544 16.6318C7.69575 16.6318 6.28638 16.1849 5.08325 15.4287C5.2895 15.4458 5.51294 15.463 5.71919 15.463C6.97388 15.463 8.14263 15.0333 9.07075 14.3115C7.88481 14.2943 6.88794 13.5037 6.56138 12.438C6.73325 12.4724 6.88794 12.4896 7.077 12.4896C7.31763 12.4896 7.55825 12.4552 7.78169 12.3865C6.54419 12.1458 5.61606 11.063 5.61606 9.75678C5.61606 9.73959 5.61606 9.73959 5.61606 9.72241C5.977 9.92866 6.3895 10.049 6.83638 10.0662C6.1145 9.58491 5.63325 8.75991 5.63325 7.81459C5.63325 7.31616 5.77075 6.85209 5.99419 6.45678C7.31763 8.08959 9.31138 9.15522 11.5458 9.27553C11.4942 9.08647 11.477 8.86303 11.477 8.65678C11.477 7.16147 12.6801 5.95834 14.1754 5.95834C14.9489 5.95834 15.6536 6.28491 16.1348 6.80053C16.7536 6.68022 17.3207 6.45678 17.8536 6.14741C17.6473 6.78334 17.2176 7.29897 16.6676 7.64272C17.2176 7.57397 17.7332 7.43647 18.2145 7.21303C17.8707 7.76303 17.4239 8.24428 16.8911 8.62241Z" fill="#FEFEFE"/>
</g>
</g>
<defs>
<clipPath id="clip0_100_54">
<rect width="22" height="22" fill="white" transform="translate(0.5)"/>
</clipPath>
</defs>
</svg>
